<svg width="391" height="43" fill="none" xmlns="http://www.w3.org/2000/svg"><path d="M0 41.707V40.12c1.464 0 2.477-.184 3.038-.55.56-.366.84-.997.84-1.893v-33.1c0-1.139-.28-1.873-.84-2.199C2.478 2.053 1.466 1.89 0 1.89V.3h14.218v1.588c-1.466 0-2.478.164-3.038.488-.56.326-.84 1.059-.84 2.2v34.076h13.7c2.327 0 4.201-.59 5.624-1.77 1.422-1.181 2.434-2.87 3.038-5.07h2.069l-2.456 9.894H0Zm38.6 0V40.12l20.166-19.176L38.6 1.889V.3h34.254v7.205h-1.68c-.087-1.384-.432-2.422-1.034-3.115-.604-.692-1.767-1.038-3.49-1.038l-17.286-.017 16.094 15.207-18.05 17.056h18.468c1.896 0 3.254-.386 4.073-1.16.819-.774 1.227-1.812 1.227-3.116h1.681v10.383H38.601v.001Zm38.107 0V40.12c1.464 0 2.477-.184 3.038-.55.56-.366.84-.997.84-1.893v-33.1c0-1.139-.28-1.873-.84-2.199-.56-.324-1.572-.488-3.038-.488V.3h8.92l16.932 25.648L119.427.301h9.76v1.588c-1.466 0-2.477.164-3.039.488-.559.326-.84 1.059-.84 2.2v33.1c0 .895.279 1.526.84 1.892.56.366 1.573.55 3.039.55v1.588h-14.218V40.12c1.464 0 2.477-.184 3.038-.55.56-.366.84-.997.84-1.893V6.39L101.27 33.038 83.819 6.165v31.513c0 .896.279 1.527.84 1.893.56.366 1.573.55 3.038.55v1.588h-10.99v-.002Zm157.384 0V40.12c1.464 0 2.477-.184 3.036-.55.56-.366.841-.997.841-1.893v-33.1c0-1.139-.281-1.873-.841-2.199-.561-.324-1.572-.488-3.036-.488V.3h14.218v1.588c-1.466 0-2.477.164-3.037.488-.56.326-.84 1.059-.84 2.2v14.9L260.46 4.332c.517-.448.776-.835.776-1.16 0-.224-.108-.427-.323-.611-.56-.447-1.572-.672-3.038-.672V.3h12.459v1.61c-3.315-.08-4.958 1.72-6.387 3.009l-10.471 9.893 14.74 22.863c.602.815 1.335 1.426 2.198 1.832.862.407 2.111.611 3.749.611v1.588h-16.287V40.12c1.465 0 2.607-.224 3.426-.672.496-.265.744-.59.744-.977 0-.244-.097-.509-.291-.794l-12.025-19.2-5.295 4.831v14.368c0 .896.28 1.527.84 1.893.56.366 1.572.55 3.037.55v1.588h-14.221Zm55.513 0h-11.633V40.12c1.552 0 2.671-.265 3.361-.793.689-.53 1.291-1.569 1.809-3.115L296.067.3h5.17l12.926 35.91c.431 1.303.97 2.28 1.617 2.93.647.652 1.83.978 3.555.978v1.588h-14.864V40.12c1.723 0 2.8-.325 3.231-.977.216-.326.324-.734.324-1.222 0-.489-.108-1.059-.324-1.71L297.104 5.555 286.375 36.21c-.28.773-.42 1.425-.42 1.954 0 .468.118.834.356 1.1.473.57 1.573.854 3.296.854v1.588h-.003Zm37.716 0V40.12c1.465 0 2.477-.184 3.038-.55.56-.366.841-.997.841-1.893V3.354h-9.048c-1.551 0-2.757.305-3.619.916-.862.611-1.594 1.691-2.198 3.238h-1.938L317.11.302h34.771l2.715 7.206h-1.939c-.602-1.547-1.336-2.627-2.198-3.238-.861-.61-2.112-.916-3.749-.916h-9.047v34.322c0 .896.279 1.527.84 1.893.56.366 1.573.55 3.038.55v1.588H327.32ZM174.113 2.417c.554-.373 1.564-.57 3.03-.588L177.12.24l-14.217.178.023 1.588c1.464-.019 2.48.152 3.045.511.566.36.855.986.866 1.883l.368 26.172L141.737.46l-.087-.132h-8.92v1.588c1.465 0 2.477.164 3.039.488.559.327.84 1.059.84 2.2v33.1c0 .895-.281 1.526-.84 1.892-.56.366-1.573.55-3.039.55v1.588h10.662v-1.588c-1.466 0-2.477-.184-3.038-.55-.56-.366-.841-.997-.841-1.893V8.226l28.236 33.542 2.124-.044.172-.001v-.003l3.719-.077L173.3 4.32c-.013-.896.257-1.53.813-1.903Zm18.154-.04c.559-.329 1.572-.488 3.035-.488V.3h-14.174v1.588c1.463 0 2.476.16 3.035.488.56.324.838 1.059.838 2.195v33.1c0 .9-.278 1.527-.838 1.897-.559.365-1.572.55-3.035.55v1.588h14.174V40.12c-1.463 0-2.476-.185-3.035-.55-.56-.37-.838-.997-.838-1.897v-33.1c0-1.135.278-1.87.838-2.195Zm35.336 10.824c-.878-2.726-1.683-4.337-3-5.826-2.56-2.788-6.218-4.832-10.606-4.832-4.535 0-7.388 2.478-7.388 5.886 0 4.214 5.414 6.817 13.093 10.598 7.754 3.841 11.338 7.436 11.338 12.145 0 6.942-6.437 11.59-14.924 11.59-3.072 0-5.925-.434-8.631-1.427-1.39-.495-2.634-.682-3.439-.682-1.096 0-2.048.744-2.048 2.046h-1.61l-2.12-13.139h1.609c3.365 7.5 8.119 10.97 15.069 10.97 5.12 0 8.704-2.851 8.704-6.942 0-2.17-.731-3.594-2.121-4.895-2.561-2.355-7.608-5.083-12.289-7.19-6.584-2.973-8.924-6.816-8.924-10.658C200.316 4.091 205.803 0 213.044 0c3 0 4.901.372 7.68 1.363 1.318.496 2.487.744 3.218.744 1.243 0 2.048-.744 2.34-2.107h1.536l1.609 13.2h-1.824v.001Zm133.666 28.506h-11.633V40.12c1.551 0 2.671-.265 3.36-.793.69-.53 1.292-1.569 1.809-3.115L367.731.3h5.171l12.926 35.91c.43 1.303.97 2.28 1.617 2.93.646.652 1.83.978 3.555.978v1.588h-14.866V40.12c1.723 0 2.8-.325 3.232-.977.215-.326.323-.734.323-1.222 0-.489-.108-1.059-.323-1.71L368.767 5.555 358.039 36.21c-.281.773-.421 1.425-.421 1.954 0 .468.119.834.356 1.1.473.57 1.573.854 3.296.854v1.588h-.001Z" fill="#000"/></svg>