<svg width="391" height="43" viewBox="0 0 391 43" fill="none" xmlns="http://www.w3.org/2000/svg">
<path d="M0 41.7072V40.119C1.46426 40.119 2.47699 39.9352 3.0382 39.5692C3.59798 39.2031 3.87858 38.5721 3.87858 37.6762V4.57652C3.87858 3.43702 3.59798 2.70345 3.0382 2.37727C2.47842 2.05251 1.46568 1.88872 0 1.88872V0.300537H14.2181V1.88872C12.7524 1.88872 11.7397 2.05251 11.1799 2.37727C10.6202 2.70345 10.3396 3.43559 10.3396 4.57652V38.6533H24.0406C26.3666 38.6533 28.2411 38.0636 29.6641 36.8828C31.0856 35.702 32.0983 34.0127 32.7023 31.8134H34.7705L32.3148 41.7072H0Z" fill="black"/>
<path d="M38.6006 41.7072V40.119L58.7655 20.9426L38.6006 1.88872V0.300537H72.8554V7.50645H71.1747C71.0878 6.12196 70.7431 5.08359 70.1406 4.39134C69.5366 3.6991 68.3743 3.35298 66.6508 3.35298L49.3646 3.33589L65.4586 18.5425L47.4089 35.5994H65.8774C67.7733 35.5994 69.1307 35.2134 69.9497 34.4386C70.7687 33.6651 71.1775 32.6268 71.1775 31.3235H72.8583V41.7057H38.6006V41.7072Z" fill="black"/>
<path d="M76.7069 41.7072V40.119C78.1712 40.119 79.1839 39.9352 79.7451 39.5692C80.3049 39.2031 80.5855 38.5721 80.5855 37.6762V4.57652C80.5855 3.43702 80.3049 2.70345 79.7451 2.37727C79.1853 2.05251 78.1726 1.88872 76.7069 1.88872V0.300537H85.6264L102.559 25.9493L119.427 0.300537H129.187V1.88872C127.721 1.88872 126.71 2.05251 126.148 2.37727C125.589 2.70345 125.308 3.43559 125.308 4.57652V37.6762C125.308 38.5721 125.587 39.2031 126.148 39.5692C126.708 39.9352 127.721 40.119 129.187 40.119V41.7072H114.969V40.119C116.433 40.119 117.446 39.9352 118.007 39.5692C118.567 39.2031 118.847 38.5721 118.847 37.6762V6.38975L101.27 33.0384L83.8188 6.1647V37.6776C83.8188 38.5736 84.098 39.2045 84.6592 39.5706C85.219 39.9367 86.2317 40.1204 87.6974 40.1204V41.7086H76.7069V41.7072Z" fill="black"/>
<path d="M234.091 41.7072V40.119C235.555 40.119 236.568 39.9352 237.127 39.5692C237.687 39.2031 237.968 38.5721 237.968 37.6762V4.57652C237.968 3.43702 237.687 2.70345 237.127 2.37727C236.566 2.05251 235.555 1.88872 234.091 1.88872V0.300537H248.309V1.88872C246.843 1.88872 245.832 2.05251 245.272 2.37727C244.712 2.70345 244.432 3.43559 244.432 4.57652V19.4769L260.46 4.33153C260.977 3.88428 261.236 3.49684 261.236 3.17209C261.236 2.94846 261.128 2.74477 260.913 2.56102C260.353 2.11377 259.341 1.88872 257.875 1.88872V0.300537H270.334V1.91009C267.019 1.83032 265.376 3.63074 263.947 4.9198L253.476 14.8135L268.216 37.6762C268.818 38.4909 269.551 39.102 270.414 39.5079C271.276 39.9153 272.525 40.119 274.163 40.119V41.7072H257.876V40.119C259.341 40.119 260.483 39.8954 261.302 39.4467C261.798 39.1817 262.046 38.857 262.046 38.4696C262.046 38.226 261.949 37.9611 261.755 37.6762L249.73 18.477L244.435 23.3085V37.6762C244.435 38.5721 244.715 39.2031 245.275 39.5692C245.835 39.9352 246.847 40.119 248.312 40.119V41.7072H234.091Z" fill="black"/>
<path d="M289.604 41.7072H277.971V40.119C279.523 40.119 280.642 39.8541 281.332 39.3256C282.021 38.7957 282.623 37.7574 283.141 36.2105L296.067 0.300537H301.237L314.163 36.2105C314.594 37.5138 315.133 38.4909 315.78 39.1419C316.427 39.7928 317.61 40.119 319.335 40.119V41.7072H304.471V40.119C306.194 40.119 307.271 39.7942 307.702 39.1419C307.918 38.8157 308.026 38.4083 308.026 37.9198C308.026 37.4312 307.918 36.8614 307.702 36.2105L297.104 5.55364L286.375 36.2105C286.095 36.9839 285.955 37.6363 285.955 38.1647C285.955 38.6334 286.073 38.9994 286.311 39.2644C286.784 39.8341 287.884 40.119 289.607 40.119V41.7072H289.604Z" fill="black"/>
<path d="M327.32 41.7072V40.119C328.785 40.119 329.797 39.9353 330.358 39.5692C330.918 39.2032 331.199 38.5722 331.199 37.6762V3.35443H322.151C320.6 3.35443 319.394 3.65926 318.532 4.27031C317.67 4.88137 316.938 5.96105 316.334 7.50792H314.396L317.11 0.302002H351.881L354.596 7.50792H352.657C352.055 5.96105 351.321 4.88137 350.459 4.27031C349.598 3.65926 348.347 3.35443 346.71 3.35443H337.663V37.6762C337.663 38.5722 337.942 39.2032 338.503 39.5692C339.063 39.9353 340.076 40.119 341.541 40.119V41.7072H327.32Z" fill="black"/>
<path d="M174.113 2.41717C174.667 2.04399 175.677 1.84742 177.143 1.82891L177.12 0.240723L162.903 0.41877L162.926 2.00695C164.39 1.98844 165.406 2.15936 165.971 2.5183C166.537 2.87724 166.826 3.50398 166.837 4.40134L167.205 30.5728L141.737 0.460082L141.65 0.327608H132.73V1.91579C134.195 1.91579 135.207 2.0796 135.769 2.40436C136.328 2.73054 136.609 3.46266 136.609 4.60359V37.7033C136.609 38.5992 136.328 39.2302 135.769 39.5963C135.209 39.9623 134.196 40.1461 132.73 40.1461V41.7343H143.392V40.1461C141.926 40.1461 140.915 39.9623 140.354 39.5963C139.794 39.2302 139.513 38.5992 139.513 37.7033V8.22579L167.749 41.7684L169.873 41.7243L170.045 41.7229V41.72L173.764 41.6431L173.3 4.32014C173.287 3.42421 173.557 2.79036 174.113 2.41717Z" fill="black"/>
<path d="M192.267 2.37727C192.826 2.04824 193.839 1.88872 195.302 1.88872V0.300537H189.006H188.431H181.128V1.88872C182.591 1.88872 183.604 2.04824 184.163 2.37727C184.723 2.70061 185.001 3.43559 185.001 4.57224V37.6719C185.001 38.5721 184.723 39.1988 184.163 39.5692C183.604 39.9338 182.591 40.119 181.128 40.119V41.7072H188.431H189.006H195.302V40.119C193.839 40.119 192.826 39.9338 192.267 39.5692C191.707 39.1988 191.429 38.5721 191.429 37.6719V4.57224C191.429 3.43701 191.707 2.70203 192.267 2.37727Z" fill="black"/>
<path d="M227.603 13.2011C226.725 10.4749 225.92 8.8639 224.603 7.37543C222.043 4.5865 218.385 2.54251 213.997 2.54251C209.462 2.54251 206.609 5.02092 206.609 8.42945C206.609 12.6428 212.023 15.2465 219.702 19.0268C227.456 22.8684 231.04 26.4635 231.04 31.1725C231.04 38.1135 224.603 42.7612 216.116 42.7612C213.044 42.7612 210.191 42.3282 207.485 41.3354C206.095 40.8397 204.851 40.6531 204.046 40.6531C202.95 40.6531 201.998 41.3967 201.998 42.6986H200.388L198.268 29.5601H199.877C203.242 37.0594 207.996 40.5292 214.946 40.5292C220.066 40.5292 223.65 37.679 223.65 33.5882C223.65 31.4189 222.919 29.9945 221.529 28.6926C218.968 26.3381 213.921 23.6105 209.24 21.5038C202.656 18.5297 200.316 14.6868 200.316 10.8452C200.316 4.09081 205.803 0 213.044 0C216.044 0 217.945 0.371755 220.724 1.36312C222.042 1.8588 223.211 2.10666 223.942 2.10666C225.185 2.10666 225.99 1.36313 226.282 0H227.818L229.427 13.1997H227.603V13.2011Z" fill="black"/>
<path d="M361.269 41.7072H349.636V40.119C351.187 40.119 352.307 39.8541 352.996 39.3256C353.686 38.7957 354.288 37.7574 354.805 36.2105L367.731 0.300537H372.902L385.828 36.2105C386.258 37.5138 386.798 38.4909 387.445 39.1419C388.091 39.7928 389.275 40.119 391 40.119V41.7072H376.134V40.119C377.857 40.119 378.934 39.7942 379.366 39.1419C379.581 38.8157 379.689 38.4083 379.689 37.9198C379.689 37.4312 379.581 36.8614 379.366 36.2105L368.767 5.55364L358.039 36.2105C357.758 36.9839 357.618 37.6363 357.618 38.1647C357.618 38.6334 357.737 38.9994 357.974 39.2644C358.447 39.8341 359.547 40.119 361.27 40.119V41.7072H361.269Z" fill="black"/>
</svg>
